<svg xmlns="http://www.w3.org/2000/svg" width="20" height="20" viewBox="0 0 20 20">
  <path fill-opacity=".54" fill-rule="evenodd" d="M10,2 C14.4,2 18,5.6 18,10 C18,14.4 14.4,18 10,18 C5.6,18 2,14.4 2,10 C2,5.6 5.6,2 10,2 Z M15.2,13 C16.2,12.9 17,12 17,11 C17,10.2 16.6,9.6 15.9,9.2 C15.9,9 15.8,8.8 15.8,8.6 C15.1,8.9 14.3,9 13.5,9 C10.7,9 8.3,7.5 7,5.2 C6.9,6.9 4.3,9.2 4.1,9.2 C3.4,9.5 3,10.2 3,11 C3,12 3.8,12.9 4.8,13 C5.8,14.8 7.8,16 10,16 C12.2,16 14.2,14.8 15.2,13 Z M7,11 C6.44771525,11 6,10.5522847 6,10 C6,9.44771525 6.44771525,9 7,9 C7.55228475,9 8,9.44771525 8,10 C8,10.5522847 7.55228475,11 7,11 Z M13,11 C12.4477153,11 12,10.5522847 12,10 C12,9.44771525 12.4477153,9 13,9 C13.5522847,9 14,9.44771525 14,10 C14,10.5522847 13.5522847,11 13,11 Z M11.6645898,12.8291796 C12.0350737,12.6439377 12.4855785,12.7941059 12.6708204,13.1645898 C12.8560623,13.5350737 12.7058941,13.9855785 12.3354102,14.1708204 C11.5973139,14.5398685 10.7868068,14.75 10,14.75 C9.21319319,14.75 8.40268607,14.5398685 7.6645898,14.1708204 C7.29410593,13.9855785 7.14393767,13.5350737 7.32917961,13.1645898 C7.51442154,12.7941059 7.96492632,12.6439377 8.3354102,12.8291796 C8.87423701,13.098593 9.45823539,13.25 10,13.25 C10.5417646,13.25 11.125763,13.098593 11.6645898,12.8291796 Z"/>
</svg>
