<svg xmlns="http://www.w3.org/2000/svg" width="40" height="20" viewBox="0 0 40 20">
  <g fill="none" fill-rule="evenodd" transform="translate(-877 -824)">
    <rect width="1920" height="3048" fill="#F2F2F2"/>
    <g transform="translate(873 818)">
      <rect width="47" height="31" x=".5" y=".5" fill="#FFF" stroke="#CCC" rx="1.5"/>
      <path fill="#0023A0" fill-rule="nonzero" d="M29.91,9.78 C26.84,9.78 24.68,11.41 24.66,13.78 C24.66,15.51 26.2,16.48 27.38,17.05 C28.56,17.62 29,18 29,18.5 C29,19.3 28,19.67 27.14,19.67 C26.1231633,19.6903639 25.1169307,19.4602698 24.21,19 L23.81,18.81 L23.38,21.5 C24.4823692,21.9306185 25.6565351,22.1478052 26.84,22.14 C30.09,22.14 32.21,20.53 32.24,18.04 C32.24,16.67 31.42,15.63 29.63,14.77 C28.55,14.22 27.88,13.85 27.89,13.28 C27.9,12.71 28.45,12.28 29.67,12.28 C30.4675696,12.2629526 31.259273,12.4199283 31.99,12.74 L32.26,12.88 L32.69,10.28 C31.803897,9.93581883 30.8605718,9.76276278 29.91,9.77 L29.91,9.78 Z M20.27,10 L18.33,22 L21.43,22 L23.38,10 L20.27,10 Z M15.73,10 L12.73,18.19 L12.4,16.53 C11.6410513,14.3725096 10.1089261,12.5731533 8.1,11.48 L10.85,22 L14.13,22 L19,10 L15.73,10 Z M38.24,10 C37.532271,9.91200725 36.8585329,10.327895 36.62,11 L32,22 L35.26,22 C35.26,22 35.79,20.51 35.91,20.19 L39.91,20.19 C40.01,20.61 40.29,21.99 40.29,21.99 L43.17,21.99 L40.64,10 L38.24,10 Z M38.46,13.24 L38.67,14.24 C38.67,14.24 39.27,17.1 39.39,17.7 L36.82,17.7 L38.05,14.35 C38.05,14.35 38.31,13.65 38.46,13.2 L38.46,13.24 Z"/>
      <path fill="#FDC201" d="M9.88,10 L4.88,10 L4.88,10.19 C8.28531047,10.9141565 11.1055729,13.2881274 12.4,16.52 L11.28,11 C11.1362049,10.3587037 10.5332679,9.92803441 9.88,10"/>
    </g>
  </g>
</svg>
